# xmcd CD database file
#
# Track frame offsets:
#	150
#	14541
#	32499
#	43950
#	59274
#
# Disc length: 923 seconds
#
# Revision: 0
# Processed by: cddbd v1.5.2PL0 Copyright (c) Steve Scherf et al.
# Submitted via: CDex 1.70beta2
#
DISCID=3c039905
DTITLE=Dubeau, Joan - Cdn - Joanne Dubeau
DYEAR=1900
DGENRE=Country
TTITLE0=Grandpa's Song
TTITLE1=Set Him Free
TTITLE2=You Are My Baby
TTITLE3=WQho's Your Baby Now
TTITLE4=Hoedown
EXTD=
EXTT0=
EXTT1=
EXTT2=
EXTT3=
EXTT4=
PLAYORDER=
